<svg xmlns="http://www.w3.org/2000/svg" width="512" height="512" viewBox="0 0 24 24">
	<path
		d="M23.305 16.25a1.89 1.89 0 0 1-1.377 1.177 1.91 1.91 0 0 1-1.769-.521l-.1-.1a3.567 3.567 0 0 0-6.089 2.553l.04 4.516-.924.077c-.331.028-.663.05-1 .05A12 12 0 0 1 3.745 3.371 11.89 11.89 0 0 1 12.5.007 12.155 12.155 0 0 1 24.08 11.7a11.9 11.9 0 0 1-.775 4.55m-6.19-8.2a1.5 1.5 0 1 0 1.835 1.065 1.5 1.5 0 0 0-1.835-1.065m-5-3a1.5 1.5 0 1 0 1.835 1.065 1.5 1.5 0 0 0-1.835-1.065m-5 3A1.5 1.5 0 1 0 8.95 9.115 1.5 1.5 0 0 0 7.115 8.05m0 6a1.5 1.5 0 1 0 1.835 1.065 1.5 1.5 0 0 0-1.835-1.065"/>
</svg>
